<svg width="42" height="15" viewBox="0 0 42 15" fill="none" xmlns="http://www.w3.org/2000/svg">
<path d="M9.70068 0.349209C9.89066 0.127563 10.168 0 10.4599 0H13.882C14.6253 0 15.1088 0.782312 14.7764 1.44721L8.27639 14.4472C8.107 14.786 7.76074 15 7.38197 15H1.77938C0.999242 15 0.519553 14.1464 0.925185 13.4801L6.95783 3.56927C6.9859 3.52317 7.01765 3.47941 7.05278 3.43843L9.70068 0.349209Z" fill="#4ecef9"/>
<path d="M25.4992 0.900681C25.5407 0.832392 25.5892 0.767919 25.6506 0.716857C26.1549 0.297879 26.9083 0.297879 27.1835 0.297879H32C32.3944 0.297879 32.3325 0.632978 32 1.29788L25 14.7451C24.9676 14.81 24.9109 14.8391 24.8405 14.8476C24.2922 14.9141 23.5523 15 23 15L19.5 15C18.9833 15 19.0393 14.8675 18.9627 14.5752C18.8612 14.1875 18.7645 13.767 18.9428 13.408L23.6814 3.86715C23.6954 3.84427 23.7102 3.82196 23.7259 3.80028C23.7578 3.75636 23.7905 3.71301 23.8187 3.66665L25.4992 0.900681Z" fill="#4ecef9"/>
<path d="M17.4548 0.577002C17.4849 0.52575 17.5185 0.475955 17.568 0.443193C17.8852 0.233588 18.9161 0 19.1835 0H22.6056C23.349 0 23.8325 0.782312 23.5 1.44721L17 14.4472C16.8306 14.786 16.4843 15 16.1056 15L11.5 15C10.7199 15 10.5944 13.6664 11 13L15.6814 3.56927C15.694 3.54861 15.7073 3.52842 15.7214 3.50874C15.7559 3.46035 15.7915 3.41265 15.8216 3.3614L17.4548 0.577002Z" fill="#4ecef9"/>
<circle cx="38.5" cy="3.5" r="3.5" fill="#4ecef9"/>
</svg>
